<?xml version="1.0" encoding="UTF-8"?> <svg xmlns="http://www.w3.org/2000/svg" width="166" height="42" viewBox="0 0 166 42" fill="none"><path d="M31.7663 2.74444C31.7023 2.44577 31.6063 2.21111 31.4783 2.04044C31.2436 1.80577 30.8063 2.07244 30.1663 2.84044L31.7663 2.74444ZM31.3183 20.9204C27.521 30.4138 25.6756 35.8858 25.7823 37.3364C26.3583 37.1018 27.1263 36.3338 28.0863 35.0324C28.4063 34.5844 28.7263 34.1151 29.0463 33.6244C29.153 33.4538 29.2596 33.2831 29.3663 33.1124C29.4516 32.9844 29.505 32.8884 29.5263 32.8244L29.5583 32.7924C29.7503 32.5791 29.9636 32.5364 30.1983 32.6644C30.4543 32.8564 30.5076 33.0804 30.3583 33.3364L30.1663 33.6244L29.9423 33.9764C29.7503 34.2751 29.5903 34.5204 29.4623 34.7124C29.0356 35.3524 28.641 35.8858 28.2783 36.3124C27.2756 37.5711 26.4223 38.2644 25.7183 38.3924C25.7396 38.3924 25.7183 38.4031 25.6543 38.4244C25.2063 38.4244 24.9396 38.1791 24.8543 37.6884C24.769 37.3258 24.7796 36.8244 24.8863 36.1844C25.2916 33.4751 26.977 28.4298 29.9423 21.0484L30.3583 19.9924C34.6676 9.58177 37.5583 4.18444 39.0303 3.80044C39.3503 3.73644 39.5423 3.85377 39.6063 4.15244C39.6703 4.45111 39.5636 4.64311 39.2863 4.72844C39.265 4.72844 39.2543 4.73911 39.2543 4.76044C37.9956 5.52844 35.489 10.5738 31.7343 19.8964L31.3183 20.9204ZM52.7903 3.35244C53.1316 3.62977 53.153 3.92844 52.8543 4.24844C52.705 4.41911 52.353 4.60044 51.7983 4.79244C51.6063 4.87777 51.3823 4.95244 51.1263 5.01644L50.8383 5.11244L50.5823 5.17644C50.2836 5.26177 50.0916 5.15511 50.0063 4.85644C49.921 4.53644 50.0276 4.33377 50.3263 4.24844C50.8596 4.09911 51.2223 3.99244 51.4143 3.92844C48.1076 3.33111 41.921 3.32044 32.8543 3.89644V4.02444C32.8756 4.34444 32.7263 4.50444 32.4063 4.50444C32.0863 4.52577 31.9156 4.37644 31.8943 4.05644V3.96044C31.553 3.98177 31.1156 4.01377 30.5823 4.05644L29.2383 4.15244C27.9583 6.11511 26.2516 9.25111 24.1183 13.5604C23.393 15.0111 22.657 16.5151 21.9103 18.0724C21.6543 18.6271 21.409 19.1604 21.1743 19.6724C20.9823 20.0564 20.833 20.3658 20.7263 20.6004C20.385 21.3684 19.9263 22.3924 19.3503 23.6724L18.6783 25.2724L17.9423 26.8724C16.8116 29.4538 15.8516 31.5124 15.0623 33.0484C12.801 37.4218 10.9236 39.5764 9.43031 39.5124C8.57697 39.4484 7.85164 38.9684 7.2543 38.0724C6.65697 37.1764 6.30497 36.0458 6.19831 34.6804C5.9423 31.3951 7.09431 28.4724 9.65431 25.9124C9.88897 25.6778 10.113 25.6778 10.3263 25.9124C10.561 26.1258 10.561 26.3498 10.3263 26.5844C8.12897 28.7818 7.0623 31.2564 7.12631 34.0084C7.12631 35.1391 7.33964 36.1204 7.7663 36.9524C8.19297 37.7631 8.72631 38.2644 9.36631 38.4564C10.4543 38.5844 12.0116 36.5258 14.0383 32.2804C14.721 30.9151 15.6276 28.9098 16.7583 26.2644L18.1343 23.0964C18.6463 21.9018 19.0943 20.8884 19.4783 20.0564C20.6516 17.4964 21.9956 14.7978 23.5103 11.9604C25.2383 8.71777 26.7316 6.14711 27.9903 4.24844C20.8436 4.86711 15.0196 5.67777 10.5183 6.68044C5.2063 7.89644 2.5503 9.22977 2.5503 10.6804C2.5503 11.1498 2.9663 11.5338 3.7983 11.8324C4.67297 12.1311 5.64364 12.1844 6.71031 11.9924C7.00897 11.9498 7.19031 12.0778 7.2543 12.3764C7.31831 12.6964 7.19031 12.8884 6.87031 12.9524C4.90764 13.2938 3.37164 12.9951 2.2623 12.0564C1.1103 11.0964 1.2063 9.99777 2.5503 8.76044C5.85697 5.75244 14.6463 3.80044 28.9183 2.90444C29.601 1.98711 30.1343 1.41111 30.5183 1.17644C31.6703 0.579108 32.4063 1.09111 32.7263 2.71244C37.6543 2.49911 42.145 2.45644 46.1983 2.58444C50.081 2.73377 52.2783 2.98977 52.7903 3.35244ZM47.4556 25.2724C47.6049 25.4858 47.5516 25.7204 47.2956 25.9764L47.0396 26.1684L46.7516 26.3924C46.5169 26.5844 46.3036 26.7551 46.1116 26.9044L45.8876 27.0644L45.6316 27.2564L45.0876 27.6084C44.6182 27.8858 44.1702 28.1098 43.7436 28.2804C42.5916 28.7498 41.4822 28.8138 40.4156 28.4724C39.3489 29.1764 38.4742 29.4324 37.7916 29.2404C37.4289 29.1338 37.1729 28.9311 37.0236 28.6324C36.8956 28.3551 36.9062 28.0671 37.0556 27.7684C37.4182 27.0431 38.3142 26.8618 39.7436 27.2244C39.9142 27.2458 40.1169 27.2991 40.3516 27.3844C41.2476 26.6591 41.9409 25.8058 42.4316 24.8244C42.9222 23.8431 42.8902 23.3311 42.3356 23.2884C40.6289 23.2671 38.6236 24.6964 36.3196 27.5764C34.8262 31.1818 33.5356 34.0938 32.4476 36.3124C30.9329 39.4058 29.9089 40.9844 29.3756 41.0484H29.1836C28.7782 40.9418 28.9062 39.8858 29.5676 37.8804C31.2529 32.9738 33.3542 29.0591 35.8716 26.1364L36.1276 25.5604L36.3516 25.0164L36.3836 24.9524V24.8884C35.9569 25.2938 35.5729 25.6351 35.2316 25.9124C34.9969 26.1044 34.7622 26.2858 34.5276 26.4564C34.4422 26.4991 34.3462 26.5204 34.2396 26.5204C34.1116 26.4991 34.0049 26.4458 33.9196 26.3604C33.8556 26.2751 33.8342 26.1684 33.8556 26.0404C33.8769 25.9338 33.9196 25.8378 33.9836 25.7524C34.0476 25.6884 34.2609 25.5071 34.6236 25.2084C34.7942 25.0591 34.9649 24.9098 35.1356 24.7604C35.3489 24.5684 35.5622 24.3764 35.7756 24.1844C36.2662 23.7364 36.8422 23.0538 37.5036 22.1364C37.6742 21.9231 37.8769 21.8911 38.1116 22.0404C38.3462 22.1898 38.4102 22.3818 38.3036 22.6164L38.2716 22.7444L38.2076 22.8724C38.1649 23.0218 38.1222 23.1498 38.0796 23.2564C37.9302 23.6404 37.7809 24.0031 37.6316 24.3444C38.7836 23.3418 39.8822 22.6591 40.9276 22.2964C41.8876 21.9551 42.6449 21.9338 43.1996 22.2324C43.7329 22.5311 43.9462 23.0751 43.8396 23.8644C43.7116 24.7178 43.1889 25.6991 42.2716 26.8084C42.0369 27.1071 41.7809 27.3738 41.5036 27.6084C42.8476 27.5658 44.1702 27.0858 45.4716 26.1684C45.8556 25.9124 46.2609 25.6031 46.6876 25.2404C46.8156 25.1338 46.9649 25.0911 47.1356 25.1124C47.2849 25.1124 47.3916 25.1658 47.4556 25.2724ZM30.1116 38.9684C30.9009 37.6244 32.1062 35.0751 33.7276 31.3204C32.0636 34.0724 30.8582 36.6218 30.1116 38.9684ZM38.3676 28.3444C38.6449 28.3018 38.9116 28.2271 39.1676 28.1204C38.9542 28.0778 38.7836 28.0564 38.6556 28.0564H38.4636L38.2396 28.0884C38.0476 28.1098 37.9302 28.1631 37.8876 28.2484C37.9089 28.2698 37.9729 28.2911 38.0796 28.3124C38.1862 28.3338 38.2822 28.3444 38.3676 28.3444ZM60.3188 25.2724C60.4681 25.4858 60.4148 25.7204 60.1588 25.9764C59.8175 26.2751 59.4761 26.5418 59.1348 26.7764C56.9375 28.3978 55.2521 29.2084 54.0788 29.2084C52.8415 29.1871 52.6708 28.2164 53.5668 26.2964L53.1828 26.5844C50.7081 28.4618 48.9801 29.1978 47.9988 28.7924C47.1241 28.4511 47.0175 27.4378 47.6788 25.7524C47.5081 25.9018 47.3375 26.0404 47.1668 26.1684L46.9748 26.3284L46.7828 26.4564C46.6975 26.4991 46.6015 26.5204 46.4948 26.5204C46.3668 26.4991 46.2601 26.4458 46.1748 26.3604C46.1108 26.2751 46.0895 26.1684 46.1108 26.0404C46.1321 25.9338 46.1748 25.8378 46.2388 25.7524C46.3028 25.6884 46.4948 25.5178 46.8148 25.2404C46.9641 25.1124 47.1135 24.9951 47.2628 24.8884C47.4335 24.7178 47.6148 24.5471 47.8068 24.3764C48.1695 24.0351 48.5961 23.6191 49.0868 23.1284C49.2361 22.9578 49.4175 22.7551 49.6308 22.5204L49.9188 22.2644L50.1428 22.0084C50.3775 21.7738 50.6015 21.7738 50.8148 22.0084C51.0495 22.2218 51.0601 22.4458 50.8468 22.6804L50.7828 22.7444L50.6868 22.8404C50.4308 23.1391 50.1748 23.4591 49.9188 23.8004C49.5988 24.2271 49.3215 24.6538 49.0868 25.0804C48.4468 26.1898 48.1801 27.0964 48.2868 27.8004C48.3508 27.9498 48.5961 27.9818 49.0228 27.8964C49.4921 27.7684 50.0575 27.5124 50.7188 27.1284C52.4681 26.0618 54.3561 24.3338 56.3828 21.9444C56.6175 21.6458 56.8948 21.6138 57.2148 21.8484C57.5348 22.0831 57.5668 22.3711 57.3108 22.7124C54.9641 25.8911 53.9615 27.6938 54.3028 28.1204C54.4095 28.2698 54.9108 28.1204 55.8068 27.6724C56.1481 27.5018 56.5001 27.3098 56.8628 27.0964C57.1828 26.9258 57.4281 26.7764 57.5988 26.6484C58.0681 26.3711 58.7295 25.9018 59.5828 25.2404C59.7108 25.1338 59.8495 25.0911 59.9988 25.1124C60.1481 25.1124 60.2548 25.1658 60.3188 25.2724ZM66.9881 25.2724C67.1161 25.4858 67.0521 25.7204 66.7961 25.9764C66.4547 26.2964 65.8894 26.7231 65.1001 27.2564C64.0121 28.0458 63.0627 28.5898 62.2521 28.8884C61.2494 29.2511 60.5241 29.1871 60.0761 28.6964C59.5427 28.1418 59.6814 27.1498 60.4921 25.7204C60.0867 26.0618 59.7667 26.3071 59.5321 26.4564C59.4681 26.4991 59.3721 26.5204 59.2441 26.5204C59.1374 26.4991 59.0414 26.4458 58.9561 26.3604C58.8921 26.2751 58.8707 26.1684 58.8921 26.0404C58.9134 25.9338 58.9561 25.8378 59.0201 25.7524C59.0841 25.6884 59.2974 25.5071 59.6601 25.2084C59.8307 25.0591 60.0014 24.9098 60.1721 24.7604C60.3854 24.5684 60.5987 24.3764 60.8121 24.1844C61.4521 23.5658 62.1561 22.8404 62.9241 22.0084C63.1161 21.7951 63.3294 21.7738 63.5641 21.9444C63.7774 22.1364 63.8094 22.3498 63.6601 22.5844L63.5641 22.7124C63.5214 22.7978 63.4787 22.8724 63.4361 22.9364C63.3081 23.1711 63.1801 23.3951 63.0521 23.6084C62.6681 24.2484 62.3374 24.8351 62.0601 25.3684C61.1641 26.9898 60.8227 27.8431 61.0361 27.9284C61.4841 28.0778 62.2094 27.8538 63.2121 27.2564C64.2361 26.7018 65.2387 26.0298 66.2201 25.2404C66.3481 25.1338 66.4867 25.0911 66.6361 25.1124C66.7854 25.1124 66.9027 25.1658 66.9881 25.2724ZM65.9003 25.9444C66.4123 24.9631 66.775 24.3551 66.9883 24.1204L67.2763 23.8644L67.5003 23.6084C67.735 23.3738 67.959 23.3738 68.1723 23.6084C68.407 23.8218 68.4176 24.0458 68.2043 24.2804L68.1403 24.3444L68.0443 24.4404C67.7883 24.7391 67.5323 25.0591 67.2763 25.4004C66.7216 26.2964 66.4976 27.0964 66.6043 27.8004C66.6683 27.9498 66.9136 27.9818 67.3403 27.8964C67.8096 27.7684 68.375 27.5124 69.0363 27.1284C70.7856 26.0618 72.6736 24.3338 74.7003 21.9444C74.935 21.6458 75.2123 21.6138 75.5323 21.8484C75.8523 22.0831 75.8843 22.3711 75.6283 22.7124C73.2816 25.8911 72.279 27.6938 72.6203 28.1204C72.727 28.2698 73.2283 28.1204 74.1243 27.6724C74.4656 27.5018 74.8176 27.3098 75.1803 27.0964C75.5003 26.9258 75.7456 26.7764 75.9163 26.6484C76.3856 26.3711 77.047 25.9018 77.9003 25.2404C78.0283 25.1338 78.167 25.0911 78.3163 25.1124C78.4656 25.1124 78.5723 25.1658 78.6363 25.2724C78.7856 25.4858 78.7323 25.7204 78.4763 25.9764C78.135 26.2751 77.7936 26.5418 77.4523 26.7764C75.255 28.3978 73.5696 29.2084 72.3963 29.2084C71.159 29.1871 70.9883 28.2164 71.8843 26.2964L71.5003 26.5844C69.0256 28.4618 67.223 29.2618 66.0923 28.9844C65.4523 27.9391 65.3883 26.9258 65.9003 25.9444ZM90.7063 25.2724C90.8556 25.4858 90.8023 25.7204 90.5463 25.9764C88.9036 27.4484 87.3356 28.3551 85.8423 28.6964C84.3063 29.0804 83.6663 28.6111 83.9223 27.2884C82.8983 28.0991 81.9276 28.5471 81.0103 28.6324C80.0076 28.7178 79.3143 28.4724 78.9303 27.8964C78.589 27.3631 78.5676 26.6804 78.8663 25.8484C78.5463 26.1258 78.2796 26.3284 78.0663 26.4564C77.981 26.4991 77.885 26.5204 77.7783 26.5204C77.6716 26.4991 77.5756 26.4458 77.4903 26.3604C77.405 26.2751 77.373 26.1684 77.3943 26.0404C77.4156 25.9338 77.469 25.8378 77.5543 25.7524C77.6183 25.6884 77.7356 25.5818 77.9063 25.4324L78.0343 25.3044L78.1623 25.2084C78.269 25.1018 78.3756 25.0058 78.4823 24.9204C78.525 24.8991 78.5783 24.8671 78.6423 24.8244C78.7063 24.7604 78.781 24.6964 78.8663 24.6324C79.101 24.4618 79.3143 24.3018 79.5063 24.1524C80.0823 23.7471 80.4556 23.5018 80.6263 23.4164C81.7783 22.7978 82.7916 22.4244 83.6663 22.2964C84.4983 22.1684 85.3196 22.1684 86.1303 22.2964C86.429 22.3391 86.5676 22.5098 86.5463 22.8084C86.5036 23.1284 86.333 23.2778 86.0343 23.2564C84.5623 23.1711 83.1116 23.5338 81.6823 24.3444C80.7223 25.0058 80.1356 25.6458 79.9223 26.2644C79.7303 26.8191 79.8796 27.1924 80.3703 27.3844C80.8823 27.5764 81.5543 27.4804 82.3863 27.0964C83.3676 26.6271 84.349 25.8271 85.3303 24.6964C85.821 23.9711 86.3116 23.3311 86.8023 22.7764C87.0156 22.5631 87.2396 22.5524 87.4743 22.7444C87.6876 22.9364 87.709 23.1498 87.5383 23.3844L87.5063 23.4484L87.4743 23.5124C87.2396 23.8111 86.8983 24.2911 86.4503 24.9524C85.917 25.7631 85.5116 26.4138 85.2343 26.9044C84.829 27.6724 84.9783 27.9604 85.6823 27.7684C85.9596 27.7044 86.2903 27.5764 86.6743 27.3844C86.973 27.2351 87.2716 27.0751 87.5703 26.9044C87.997 26.6698 88.445 26.3711 88.9143 26.0084C89.1063 25.8804 89.2983 25.7418 89.4903 25.5924C89.6396 25.4858 89.789 25.3684 89.9383 25.2404C90.0663 25.1338 90.205 25.0911 90.3543 25.1124C90.5036 25.1124 90.621 25.1658 90.7063 25.2724ZM107.989 25.2724C108.138 25.4858 108.085 25.7204 107.829 25.9764C107.722 26.0831 107.573 26.2004 107.381 26.3284L107.125 26.5204L106.837 26.7444C104.981 28.1738 103.455 28.8778 102.261 28.8564C101.045 28.8564 100.767 28.0244 101.429 26.3604C99.3379 28.1738 97.6952 29.0271 96.5006 28.9204C95.4126 28.8351 95.0606 27.9498 95.4446 26.2644C93.0979 28.2484 91.6046 28.8351 90.9646 28.0244C90.5806 27.4698 90.5592 26.7231 90.9006 25.7844V25.7524C90.4739 26.0938 90.1539 26.3284 89.9406 26.4564C89.8766 26.4991 89.7806 26.5204 89.6526 26.5204C89.5459 26.4991 89.4499 26.4458 89.3646 26.3604C89.3006 26.2751 89.2792 26.1684 89.3006 26.0404C89.3219 25.9338 89.3646 25.8378 89.4286 25.7524C89.5139 25.6671 89.6952 25.5071 89.9726 25.2724L90.1646 25.1124L90.3886 24.9204C90.5806 24.7498 90.7619 24.5898 90.9326 24.4404C91.2952 24.0991 91.7219 23.6831 92.2126 23.1924L92.7886 22.5844L93.0766 22.2964L93.3326 22.0084C93.5459 21.7738 93.7699 21.7738 94.0046 22.0084C94.2392 22.2218 94.2499 22.4458 94.0366 22.6804C93.4179 23.3204 92.8632 24.0671 92.3726 24.9204C91.8392 25.8378 91.5832 26.5418 91.6046 27.0324L91.6366 27.1284C91.6366 27.1711 91.6579 27.2031 91.7006 27.2244C91.8072 27.2671 91.9779 27.2138 92.2126 27.0644C93.4926 26.3391 94.9432 25.2084 96.5646 23.6724C97.2686 22.3924 97.8659 21.7738 98.3566 21.8164C98.4632 21.7951 98.5699 21.8378 98.6766 21.9444C98.7832 22.0511 98.8366 22.1898 98.8366 22.3604C98.8792 22.7444 98.3032 23.5444 97.1086 24.7604C96.2979 26.3391 96.0419 27.3311 96.3406 27.7364C96.3619 27.7578 96.3726 27.7578 96.3726 27.7364C96.7992 28.2271 98.0472 27.5978 100.117 25.8484C100.863 25.2084 101.653 24.4831 102.485 23.6724C103.167 22.9898 103.722 22.4138 104.149 21.9444C104.405 21.6458 104.682 21.6244 104.981 21.8804C105.279 22.1364 105.301 22.4138 105.045 22.7124C104.831 22.9471 104.543 23.3311 104.181 23.8644C103.775 24.4404 103.413 24.9951 103.093 25.5284C102.197 26.9791 101.919 27.7578 102.261 27.8644C102.623 27.9711 103.242 27.7898 104.117 27.3204C104.437 27.1711 104.778 26.9791 105.141 26.7444C105.269 26.6591 105.407 26.5738 105.557 26.4884C105.663 26.4031 105.77 26.3284 105.877 26.2644C106.346 25.9444 106.805 25.6031 107.253 25.2404C107.381 25.1338 107.519 25.0911 107.669 25.1124C107.818 25.1124 107.925 25.1658 107.989 25.2724ZM118.327 25.2724C118.455 25.4858 118.391 25.7204 118.135 25.9764C117.793 26.2964 117.228 26.7231 116.439 27.2564L116.183 27.4164L115.895 27.6084C115.681 27.7578 115.479 27.8858 115.287 27.9924C114.753 28.2911 114.252 28.5258 113.783 28.6964C112.481 29.2084 111.212 29.3364 109.975 29.0804C109.1 28.8884 108.471 28.4404 108.087 27.7364C107.767 27.1178 107.713 26.4991 107.927 25.8804C107.607 26.1364 107.351 26.3284 107.159 26.4564C107.095 26.4991 106.999 26.5204 106.871 26.5204C106.764 26.4991 106.668 26.4458 106.583 26.3604C106.519 26.2751 106.497 26.1684 106.519 26.0404C106.54 25.9124 106.583 25.8164 106.647 25.7524C106.711 25.6884 106.828 25.5818 106.999 25.4324L107.127 25.3044L107.255 25.2084C107.361 25.1018 107.468 25.0058 107.575 24.9204C107.617 24.8991 107.745 24.8138 107.959 24.6644L108.087 24.6004L108.247 24.4724L108.599 24.2484C109.239 23.2031 110.081 22.3711 111.127 21.7524C112.257 21.0484 113.303 20.8244 114.263 21.0804C114.689 21.1871 114.988 21.4004 115.159 21.7204C115.564 22.3818 114.903 23.0751 113.175 23.8004C112.876 23.9284 112.535 24.0564 112.151 24.1844L111.639 24.3764L111.159 24.5364C110.412 24.7924 109.964 24.9738 109.815 25.0804C109.367 25.8698 109.239 26.5204 109.431 27.0324C109.601 27.5231 110.007 27.8324 110.647 27.9604C112.097 28.2804 113.783 27.8218 115.703 26.5844C116.236 26.2644 116.855 25.8164 117.559 25.2404C117.687 25.1338 117.825 25.0911 117.975 25.1124C118.124 25.1124 118.241 25.1658 118.327 25.2724ZM114.199 22.2004L114.039 22.1364C113.975 22.1364 113.9 22.1258 113.815 22.1044C113.601 22.1044 113.377 22.1258 113.143 22.1684C112.481 22.3391 111.756 22.7764 110.967 23.4804L110.711 23.7364C111.265 23.5444 111.82 23.3311 112.375 23.0964C113.057 22.7978 113.655 22.4991 114.167 22.2004H114.199ZM125.822 23.5444C126.249 22.8618 126.622 22.3498 126.942 22.0084C127.134 21.7951 127.348 21.7738 127.582 21.9444C127.817 22.1364 127.86 22.3498 127.71 22.5844C127.689 22.6058 127.657 22.6484 127.614 22.7124L127.55 22.8084L127.486 22.9364C127.358 23.1711 127.23 23.3951 127.102 23.6084C126.718 24.2484 126.377 24.8351 126.078 25.3684C125.182 26.9898 124.841 27.8431 125.054 27.9284C125.481 28.0778 126.217 27.8538 127.262 27.2564C128.222 26.7444 129.214 26.0724 130.238 25.2404C130.366 25.1338 130.516 25.0911 130.686 25.1124C130.836 25.1124 130.942 25.1658 131.006 25.2724C131.156 25.4858 131.102 25.7204 130.846 25.9764C130.505 26.2751 129.94 26.7018 129.15 27.2564C128.041 28.0458 127.092 28.5898 126.302 28.8884C125.278 29.2511 124.542 29.1871 124.094 28.6964C123.604 28.1631 123.721 27.2351 124.446 25.9124C122.526 27.2138 121.15 27.6938 120.318 27.3524C119.785 27.1391 119.54 26.6698 119.582 25.9444C119.497 26.0511 119.422 26.1684 119.358 26.2964L118.366 28.1844C118.153 28.2698 117.972 28.2378 117.822 28.0884C117.673 27.9178 117.641 27.6938 117.726 27.4164C117.812 27.1391 118.142 26.4884 118.718 25.4644C118.441 25.6991 118.185 25.9124 117.95 26.1044C117.865 26.1684 117.769 26.2324 117.662 26.2964L117.438 26.4564C117.374 26.4991 117.278 26.5204 117.15 26.5204C117.044 26.4991 116.948 26.4458 116.862 26.3604C116.798 26.2751 116.777 26.1684 116.798 26.0404C116.82 25.9338 116.862 25.8378 116.926 25.7524C116.99 25.6884 117.129 25.5711 117.342 25.4004C117.449 25.2938 117.545 25.2084 117.63 25.1444C117.758 25.0378 117.876 24.9311 117.982 24.8244C118.025 24.8031 118.068 24.7604 118.11 24.6964C118.174 24.6538 118.249 24.5898 118.334 24.5044C118.526 24.3338 118.74 24.1418 118.974 23.9284C119.614 23.3098 120.233 22.6698 120.83 22.0084C121.044 21.7951 121.268 21.7844 121.502 21.9764C121.737 22.1684 121.769 22.3711 121.598 22.5844C121.449 22.8191 121.31 23.0538 121.182 23.2884L121.246 23.2244C120.713 24.6111 120.5 25.6564 120.606 26.3604C120.67 26.5098 120.916 26.5418 121.342 26.4564C121.812 26.3284 122.377 26.0724 123.038 25.6884C123.934 25.1338 124.862 24.4191 125.822 23.5444ZM143.788 25.2724C143.937 25.4858 143.884 25.7204 143.628 25.9764C143.286 26.2751 142.945 26.5418 142.604 26.7764C140.406 28.3978 138.721 29.2084 137.548 29.2084C136.31 29.1871 136.14 28.2164 137.036 26.2964L136.652 26.5844C134.177 28.4618 132.449 29.1978 131.468 28.7924C130.593 28.4511 130.486 27.4378 131.148 25.7524C130.977 25.9018 130.806 26.0404 130.636 26.1684L130.444 26.3284L130.252 26.4564C130.166 26.4991 130.07 26.5204 129.964 26.5204C129.836 26.4991 129.729 26.4458 129.644 26.3604C129.58 26.2751 129.558 26.1684 129.58 26.0404C129.601 25.9338 129.644 25.8378 129.708 25.7524C129.772 25.6884 129.964 25.5178 130.284 25.2404C130.433 25.1124 130.582 24.9951 130.732 24.8884C130.902 24.7178 131.084 24.5471 131.276 24.3764C131.638 24.0351 132.065 23.6191 132.556 23.1284C132.705 22.9578 132.886 22.7551 133.1 22.5204L133.388 22.2644L133.612 22.0084C133.846 21.7738 134.07 21.7738 134.284 22.0084C134.518 22.2218 134.529 22.4458 134.316 22.6804L134.252 22.7444L134.156 22.8404C133.9 23.1391 133.644 23.4591 133.388 23.8004C133.068 24.2271 132.79 24.6538 132.556 25.0804C131.916 26.1898 131.649 27.0964 131.756 27.8004C131.82 27.9498 132.065 27.9818 132.492 27.8964C132.961 27.7684 133.526 27.5124 134.188 27.1284C135.937 26.0618 137.825 24.3338 139.852 21.9444C140.086 21.6458 140.364 21.6138 140.684 21.8484C141.004 22.0831 141.036 22.3711 140.78 22.7124C138.433 25.8911 137.43 27.6938 137.772 28.1204C137.878 28.2698 138.38 28.1204 139.276 27.6724C139.617 27.5018 139.969 27.3098 140.332 27.0964C140.652 26.9258 140.897 26.7764 141.068 26.6484C141.537 26.3711 142.198 25.9018 143.052 25.2404C143.18 25.1338 143.318 25.0911 143.468 25.1124C143.617 25.1124 143.724 25.1658 143.788 25.2724ZM154.233 25.2724C154.361 25.4858 154.297 25.7204 154.041 25.9764C153.699 26.2964 153.134 26.7231 152.345 27.2564L152.089 27.4164L151.801 27.6084C151.587 27.7578 151.385 27.8858 151.193 27.9924C150.659 28.2911 150.158 28.5258 149.689 28.6964C148.387 29.2084 147.118 29.3364 145.881 29.0804C145.006 28.8884 144.377 28.4404 143.993 27.7364C143.673 27.1178 143.619 26.4991 143.833 25.8804C143.513 26.1364 143.257 26.3284 143.065 26.4564C143.001 26.4991 142.905 26.5204 142.777 26.5204C142.67 26.4991 142.574 26.4458 142.489 26.3604C142.425 26.2751 142.403 26.1684 142.425 26.0404C142.446 25.9124 142.489 25.8164 142.553 25.7524C142.617 25.6884 142.734 25.5818 142.905 25.4324L143.033 25.3044L143.161 25.2084C143.267 25.1018 143.374 25.0058 143.481 24.9204C143.523 24.8991 143.651 24.8138 143.865 24.6644L143.993 24.6004L144.153 24.4724L144.505 24.2484C145.145 23.2031 145.987 22.3711 147.033 21.7524C148.163 21.0484 149.209 20.8244 150.169 21.0804C150.595 21.1871 150.894 21.4004 151.065 21.7204C151.47 22.3818 150.809 23.0751 149.081 23.8004C148.782 23.9284 148.441 24.0564 148.057 24.1844L147.545 24.3764L147.065 24.5364C146.318 24.7924 145.87 24.9738 145.721 25.0804C145.273 25.8698 145.145 26.5204 145.337 27.0324C145.507 27.5231 145.913 27.8324 146.553 27.9604C148.003 28.2804 149.689 27.8218 151.609 26.5844C152.142 26.2644 152.761 25.8164 153.465 25.2404C153.593 25.1338 153.731 25.0911 153.881 25.1124C154.03 25.1124 154.147 25.1658 154.233 25.2724ZM150.105 22.2004L149.945 22.1364C149.881 22.1364 149.806 22.1258 149.721 22.1044C149.507 22.1044 149.283 22.1258 149.049 22.1684C148.387 22.3391 147.662 22.7764 146.873 23.4804L146.617 23.7364C147.171 23.5444 147.726 23.3311 148.281 23.0964C148.963 22.7978 149.561 22.4991 150.073 22.2004H150.105ZM165.473 6.23244C164.875 7.04311 164.257 8.04577 163.617 9.24044C163.147 10.0724 162.635 11.0964 162.081 12.3124C160.843 14.9578 159.542 18.0938 158.177 21.7204C157.75 22.8938 157.334 24.0244 156.929 25.1124C156.801 25.4964 156.683 25.8378 156.577 26.1364C156.491 26.3711 156.449 26.5098 156.449 26.5524C156.342 26.8511 156.139 26.9471 155.841 26.8404C155.521 26.7338 155.414 26.5311 155.521 26.2324C157.526 20.3231 159.361 15.5231 161.025 11.8324C161.601 10.5951 162.145 9.51777 162.657 8.60044C163.339 7.34177 163.979 6.31777 164.577 5.52844C164.683 5.37911 164.811 5.30444 164.961 5.30444C165.11 5.28311 165.249 5.32577 165.377 5.43244C165.505 5.51777 165.579 5.63511 165.601 5.78444C165.622 5.93377 165.579 6.08311 165.473 6.23244ZM154.177 31.1284C153.707 30.7658 153.622 30.3178 153.921 29.7844C154.177 29.2938 154.561 29.0271 155.073 28.9844C155.265 28.9844 155.403 29.0591 155.489 29.2084C155.553 29.3578 155.521 29.4858 155.393 29.5924C155.585 29.6564 155.681 29.8058 155.681 30.0404C155.681 30.2538 155.606 30.4778 155.457 30.7124C155.286 30.9684 155.094 31.1391 154.881 31.2244C154.646 31.3311 154.411 31.2991 154.177 31.1284ZM154.977 29.8164C154.934 29.8378 154.891 29.8804 154.849 29.9444L154.689 30.1044C154.582 30.2324 154.55 30.3284 154.593 30.3924L154.625 30.4244C154.689 30.4671 154.763 30.3924 154.849 30.2004L154.913 29.9764C154.934 29.8911 154.955 29.8378 154.977 29.8164Z" fill="#FEFAEF"></path></svg> 